<svg width="37" height="37" viewBox="0 0 37 37" fill="none" xmlns="http://www.w3.org/2000/svg">
<rect width="37" height="37" rx="18.5" fill="#EF9E52"/>
<path d="M9.75 10.75C9.05964 10.75 8.5 11.3096 8.5 12C8.5 12.6904 9.05964 13.25 9.75 13.25H23.5C24.1904 13.25 24.75 12.6904 24.75 12C24.75 11.3096 24.1904 10.75 23.5 10.75H9.75Z" fill="white"/>
<path d="M9.75 15.75C9.05964 15.75 8.5 16.3096 8.5 17C8.5 17.6904 9.05964 18.25 9.75 18.25H18.5C19.1904 18.25 19.75 17.6904 19.75 17C19.75 16.3096 19.1904 15.75 18.5 15.75H9.75Z" fill="white"/>
<path d="M9.75 20.75C9.05964 20.75 8.5 21.3096 8.5 22C8.5 22.6904 9.05964 23.25 9.75 23.25H14.75C15.4404 23.25 16 22.6904 16 22C16 21.3096 15.4404 20.75 14.75 20.75H9.75Z" fill="white"/>
<path d="M24.75 17C24.75 16.3096 24.1904 15.75 23.5 15.75C22.8096 15.75 22.25 16.3096 22.25 17L22.25 23.9822L20.6339 22.3661C20.1457 21.878 19.3543 21.878 18.8661 22.3661C18.378 22.8543 18.378 23.6457 18.8661 24.1339L22.6161 27.8839C22.8505 28.1183 23.1685 28.25 23.5 28.25C23.8315 28.25 24.1495 28.1183 24.3839 27.8839L28.1339 24.1339C28.622 23.6457 28.622 22.8543 28.1339 22.3661C27.6457 21.878 26.8543 21.878 26.3661 22.3661L24.75 23.9822L24.75 17Z" fill="white"/>
</svg>
